<svg viewBox="0 0 800 600" xmlns="http://www.w3.org/2000/svg">
  <!-- Background -->
  <rect x="0" y="0" width="800" height="600" fill="#f9f9f9" />
  
  <!-- Title -->
  <text x="400" y="30" font-family="Arial" font-size="22" text-anchor="middle" font-weight="bold">Istio iptables Traffic Flow in Pod Namespace</text>
  
  <!-- Pod Boundary -->
  <rect x="50" y="50" width="700" height="530" fill="#f0f0f0" stroke="#666" stroke-width="2" rx="10" stroke-dasharray="5,5" />
  <text x="400" y="75" font-family="Arial" font-size="18" text-anchor="middle">Pod Namespace</text>
  
  <!-- External Client/Services -->
  <rect x="20" y="200" width="100" height="60" fill="#b3e6ff" stroke="#0099cc" stroke-width="2" rx="5" />
  <text x="70" y="235" font-family="Arial" font-size="14" text-anchor="middle">External</text>
  
  <rect x="20" y="400" width="100" height="60" fill="#b3e6ff" stroke="#0099cc" stroke-width="2" rx="5" />
  <text x="70" y="435" font-family="Arial" font-size="14" text-anchor="middle">External</text>
  
  <!-- iptables section -->
  <rect x="150" y="100" width="500" height="400" fill="#ffe6cc" stroke="#ff9933" stroke-width="2" rx="5" />
  <text x="400" y="125" font-family="Arial" font-size="16" text-anchor="middle" font-weight="bold">iptables Rules</text>
  
  <!-- iptables chains -->
  <!-- PREROUTING -->
  <rect x="175" y="150" width="150" height="40" fill="#d9d9f3" stroke="#4d4dff" stroke-width="2" />
  <text x="250" y="175" font-family="Arial" font-size="14" text-anchor="middle">PREROUTING</text>
  
  <!-- ISTIO_INBOUND -->
  <rect x="175" y="210" width="150" height="40" fill="#d9d9f3" stroke="#4d4dff" stroke-width="2" />
  <text x="250" y="235" font-family="Arial" font-size="14" text-anchor="middle">ISTIO_INBOUND</text>
  
  <!-- ISTIO_IN_REDIRECT -->
  <rect x="175" y="270" width="150" height="40" fill="#d9d9f3" stroke="#4d4dff" stroke-width="2" />
  <text x="250" y="295" font-family="Arial" font-size="14" text-anchor="middle">ISTIO_IN_REDIRECT</text>
  
  <!-- OUTPUT -->
  <rect x="475" y="150" width="150" height="40" fill="#d9d9f3" stroke="#4d4dff" stroke-width="2" />
  <text x="550" y="175" font-family="Arial" font-size="14" text-anchor="middle">OUTPUT</text>
  
  <!-- ISTIO_OUTPUT -->
  <rect x="475" y="210" width="150" height="40" fill="#d9d9f3" stroke="#4d4dff" stroke-width="2" />
  <text x="550" y="235" font-family="Arial" font-size="14" text-anchor="middle">ISTIO_OUTPUT</text>
  
  <!-- ISTIO_REDIRECT -->
  <rect x="475" y="270" width="150" height="40" fill="#d9d9f3" stroke="#4d4dff" stroke-width="2" />
  <text x="550" y="295" font-family="Arial" font-size="14" text-anchor="middle">ISTIO_REDIRECT</text>
  
  <!-- Key bypass rules -->
  <rect x="290" y="350" width="220" height="120" fill="#ffd9d9" stroke="#ff6666" stroke-width="2" rx="5" />
  <text x="400" y="370" font-family="Arial" font-size="14" text-anchor="middle" font-weight="bold">Bypass Rules</text>
  <text x="400" y="395" font-family="Arial" font-size="12" text-anchor="middle">- Skip localhost traffic</text>
  <text x="400" y="415" font-family="Arial" font-size="12" text-anchor="middle">- Skip pod's own IP</text>
  <text x="400" y="435" font-family="Arial" font-size="12" text-anchor="middle">- Skip Envoy's own traffic (UID 1337)</text>
  <text x="400" y="455" font-family="Arial" font-size="12" text-anchor="middle">- Skip Kubernetes service CIDR</text>
  
  <!-- Envoy -->
  <rect x="250" y="520" width="120" height="50" fill="#c2f0c2" stroke="#2d862d" stroke-width="2" rx="5" />
  <text x="310" y="550" font-family="Arial" font-size="14" text-anchor="middle">Envoy Proxy</text>
  <text x="310" y="568" font-family="Arial" font-size="10" text-anchor="middle">15001 (out) / 15006 (in)</text>
  
  <!-- Application -->
  <rect x="430" y="520" width="120" height="50" fill="#ffcc99" stroke="#ff8c1a" stroke-width="2" rx="5" />
  <text x="490" y="550" font-family="Arial" font-size="14" text-anchor="middle">Application</text>
  <text x="490" y="568" font-family="Arial" font-size="10" text-anchor="middle">localhost:8080</text>
  
  <!-- Arrows -->
  <defs>
    <marker id="arrowhead" markerWidth="10" markerHeight="7" refX="0" refY="3.5" orient="auto">
      <polygon points="0 0, 10 3.5, 0 7" fill="#000" />
    </marker>
  </defs>
  
  <!-- Inbound Flow -->
  <!-- External to PREROUTING -->
  <line x1="120" y1="230" x2="175" y2="170" stroke="#006600" stroke-width="2" marker-end="url(#arrowhead)" />
  <text x="130" y="200" font-family="Arial" font-size="12" fill="#006600">1</text>
  
  <!-- PREROUTING to ISTIO_INBOUND -->
  <line x1="250" y1="190" x2="250" y2="210" stroke="#006600" stroke-width="2" marker-end="url(#arrowhead)" />
  <text x="260" y="200" font-family="Arial" font-size="12" fill="#006600">2</text>
  
  <!-- ISTIO_INBOUND to ISTIO_IN_REDIRECT -->
  <line x1="250" y1="250" x2="250" y2="270" stroke="#006600" stroke-width="2" marker-end="url(#arrowhead)" />
  <text x="260" y="260" font-family="Arial" font-size="12" fill="#006600">3</text>
  
  <!-- ISTIO_IN_REDIRECT to Envoy -->
  <line x1="250" y1="310" x2="280" y2="520" stroke="#006600" stroke-width="2" marker-end="url(#arrowhead)" />
  <text x="260" y="400" font-family="Arial" font-size="12" fill="#006600">4</text>
  
  <!-- Envoy to Application -->
  <line x1="370" y1="545" x2="430" y2="545" stroke="#006600" stroke-width="2" marker-end="url(#arrowhead)" />
  <text x="400" y="535" font-family="Arial" font-size="12" fill="#006600">5</text>
  
  <!-- Outbound Flow -->
  <!-- Application to OUTPUT -->
  <line x1="490" y1="520" x2="550" y2="190" stroke="#990000" stroke-width="2" marker-end="url(#arrowhead)" stroke-dasharray="5,5" />
  <text x="530" y="350" font-family="Arial" font-size="12" fill="#990000">A</text>
  
  <!-- OUTPUT to ISTIO_OUTPUT -->
  <line x1="550" y1="190" x2="550" y2="210" stroke="#990000" stroke-width="2" marker-end="url(#arrowhead)" stroke-dasharray="5,5" />
  <text x="560" y="200" font-family="Arial" font-size="12" fill="#990000">B</text>
  
  <!-- ISTIO_OUTPUT to ISTIO_REDIRECT -->
  <line x1="550" y1="250" x2="550" y2="270" stroke="#990000" stroke-width="2" marker-end="url(#arrowhead)" stroke-dasharray="5,5" />
  <text x="560" y="260" font-family="Arial" font-size="12" fill="#990000">C</text>
  
  <!-- ISTIO_REDIRECT to Envoy -->
  <line x1="475" y1="290" x2="350" y2="520" stroke="#990000" stroke-width="2" marker-end="url(#arrowhead)" stroke-dasharray="5,5" />
  <text x="390" y="400" font-family="Arial" font-size="12" fill="#990000">D</text>
  
  <!-- Envoy to External -->
  <line x1="250" y1="545" x2="120" y2="430" stroke="#990000" stroke-width="2" marker-end="url(#arrowhead)" stroke-dasharray="5,5" />
  <text x="180" y="490" font-family="Arial" font-size="12" fill="#990000">E</text>
  
  <!-- Bypass Flow (example) -->
  <path d="M 490 190 C 600 250 600 430 120 430" stroke="#0066cc" stroke-width="2" marker-end="url(#arrowhead)" fill="none" stroke-dasharray="2,2" />
  <text x="600" y="300" font-family="Arial" font-size="12" fill="#0066cc">Bypass</text>
  
  <!-- Legend -->
  <rect x="580" y="530" width="150" height="70" fill="white" stroke="#666" stroke-width="1" />
  <text x="655" y="545" font-family="Arial" font-size="12" text-anchor="middle" font-weight="bold">Legend</text>
  
  <line x1="590" y1="560" x2="610" y2="560" stroke="#006600" stroke-width="2" />
  <text x="665" y="565" font-family="Arial" font-size="10" text-anchor="middle">Inbound Traffic (1-5)</text>
  
  <line x1="590" y1="580" x2="610" y2="580" stroke="#990000" stroke-width="2" stroke-dasharray="5,5" />
  <text x="665" y="585" font-family="Arial" font-size="10" text-anchor="middle">Outbound Traffic (A-E)</text>
  
  <line x1="590" y1="600" x2="610" y2="600" stroke="#0066cc" stroke-width="2" stroke-dasharray="2,2" />
  <text x="665" y="605" font-family="Arial" font-size="10" text-anchor="middle">Bypassed Traffic</text>
</svg>
